<svg width="22" height="22" viewBox="0 0 22 22" fill="none" xmlns="http://www.w3.org/2000/svg">
<path d="M9.33333 3.5H4.33333C4.11232 3.5 3.90036 3.5878 3.74408 3.74408C3.5878 3.90036 3.5 4.11232 3.5 4.33333V9.33333C3.5 9.55435 3.5878 9.76631 3.74408 9.92259C3.90036 10.0789 4.11232 10.1667 4.33333 10.1667H9.33333C9.55435 10.1667 9.76631 10.0789 9.92259 9.92259C10.0789 9.76631 10.1667 9.55435 10.1667 9.33333V4.33333C10.1667 4.11232 10.0789 3.90036 9.92259 3.74408C9.76631 3.5878 9.55435 3.5 9.33333 3.5ZM8.5 8.5H5.16667V5.16667H8.5V8.5ZM17.6667 11.8333H12.6667C12.4457 11.8333 12.2337 11.9211 12.0774 12.0774C11.9211 12.2337 11.8333 12.4457 11.8333 12.6667V17.6667C11.8333 17.8877 11.9211 18.0996 12.0774 18.2559C12.2337 18.4122 12.4457 18.5 12.6667 18.5H17.6667C17.8877 18.5 18.0996 18.4122 18.2559 18.2559C18.4122 18.0996 18.5 17.8877 18.5 17.6667V12.6667C18.5 12.4457 18.4122 12.2337 18.2559 12.0774C18.0996 11.9211 17.8877 11.8333 17.6667 11.8333ZM16.8333 16.8333H13.5V13.5H16.8333V16.8333ZM15.1667 3.5C13.3283 3.5 11.8333 4.995 11.8333 6.83333C11.8333 8.67167 13.3283 10.1667 15.1667 10.1667C17.005 10.1667 18.5 8.67167 18.5 6.83333C18.5 4.995 17.005 3.5 15.1667 3.5ZM15.1667 8.5C14.2475 8.5 13.5 7.7525 13.5 6.83333C13.5 5.91417 14.2475 5.16667 15.1667 5.16667C16.0858 5.16667 16.8333 5.91417 16.8333 6.83333C16.8333 7.7525 16.0858 8.5 15.1667 8.5ZM6.83333 11.8333C4.995 11.8333 3.5 13.3283 3.5 15.1667C3.5 17.005 4.995 18.5 6.83333 18.5C8.67167 18.5 10.1667 17.005 10.1667 15.1667C10.1667 13.3283 8.67167 11.8333 6.83333 11.8333ZM6.83333 16.8333C5.91417 16.8333 5.16667 16.0858 5.16667 15.1667C5.16667 14.2475 5.91417 13.5 6.83333 13.5C7.7525 13.5 8.5 14.2475 8.5 15.1667C8.5 16.0858 7.7525 16.8333 6.83333 16.8333Z" fill="#16A75C"/>
</svg>
