<svg width="22" height="22" viewBox="0 0 22 22" fill="none" xmlns="http://www.w3.org/2000/svg">
<path d="M17.2 5.4H16V3.8C16 3.58783 15.9157 3.38434 15.7657 3.23431C15.6157 3.08429 15.4122 3 15.2 3C14.9878 3 14.7843 3.08429 14.6343 3.23431C14.4843 3.38434 14.4 3.58783 14.4 3.8V5.4H8V3.8C8 3.58783 7.91571 3.38434 7.76569 3.23431C7.61566 3.08429 7.41217 3 7.2 3C6.98783 3 6.78434 3.08429 6.63431 3.23431C6.48429 3.38434 6.4 3.58783 6.4 3.8V5.4H5.2C4.88174 5.4 4.57652 5.52643 4.35147 5.75147C4.12643 5.97652 4 6.28174 4 6.6V17.8C4 18.1183 4.12643 18.4235 4.35147 18.6485C4.57652 18.8736 4.88174 19 5.2 19H17.2C17.5183 19 17.8235 18.8736 18.0485 18.6485C18.2736 18.4235 18.4 18.1183 18.4 17.8V6.6C18.4 6.28174 18.2736 5.97652 18.0485 5.75147C17.8235 5.52643 17.5183 5.4 17.2 5.4ZM16.8 7V8.6H5.6V7H16.8ZM5.6 17.4V10.2H16.8V17.4H5.6Z" fill="#16A75C"/>
<path d="M11.9999 11.8H10.3999V13.4H11.9999V11.8Z" fill="#16A75C"/>
<path d="M15.2001 11.8H13.6001V13.4H15.2001V11.8Z" fill="#16A75C"/>
<path d="M8.79995 15H7.19995V16.6H8.79995V15Z" fill="#16A75C"/>
<path d="M11.9999 15H10.3999V16.6H11.9999V15Z" fill="#16A75C"/>
<path d="M15.2001 15H13.6001V16.6H15.2001V15Z" fill="#16A75C"/>
</svg>
