<svg width="57" height="70" viewBox="0 0 57 70" fill="none" xmlns="http://www.w3.org/2000/svg">
<g clip-path="url(#clip0_1658_36238)">
<path d="M56.1656 15.416H0.5V65.364C0.5 67.5731 2.29086 69.364 4.5 69.364H52.1656C54.3747 69.364 56.1656 67.5731 56.1656 65.364V15.416Z" fill="#099449"/>
<path d="M56.1656 6.91001V15.3922H0.5V6.91001C0.5 5.21827 1.91049 3.85547 3.66143 3.85547H53.0041C54.7551 3.85547 56.1656 5.24176 56.1656 6.91001Z" fill="#24B1E7"/>
<path d="M47.5322 11.6797C48.9827 11.6797 50.1586 10.5436 50.1586 9.14212C50.1586 7.74062 48.9827 6.60449 47.5322 6.60449C46.0816 6.60449 44.9058 7.74062 44.9058 9.14212C44.9058 10.5436 46.0816 11.6797 47.5322 11.6797Z" fill="#0079A4"/>
<path d="M47.5322 10.0823C48.359 10.0823 49.0399 9.42441 49.0399 8.62553V2.0935C49.0399 1.29462 48.359 0.636719 47.5322 0.636719C46.7053 0.636719 46.0244 1.29462 46.0244 2.0935V8.62553C46.0487 9.44791 46.7053 10.0823 47.5322 10.0823Z" fill="#FDBE21"/>
<path d="M29.0503 11.6797C30.5008 11.6797 31.6767 10.5436 31.6767 9.14212C31.6767 7.74062 30.5008 6.60449 29.0503 6.60449C27.5997 6.60449 26.4238 7.74062 26.4238 9.14212C26.4238 10.5436 27.5997 11.6797 29.0503 11.6797Z" fill="#0079A4"/>
<path d="M29.0502 10.0823C29.8771 10.0823 30.558 9.42441 30.558 8.62553V2.0935C30.558 1.29462 29.8771 0.636719 29.0502 0.636719C28.2234 0.636719 27.5425 1.29462 27.5425 2.0935V8.62553C27.5668 9.44791 28.2234 10.0823 29.0502 10.0823Z" fill="#FDBE21"/>
<path d="M10.5678 11.6797C12.0184 11.6797 13.1943 10.5436 13.1943 9.14212C13.1943 7.74062 12.0184 6.60449 10.5678 6.60449C9.1173 6.60449 7.94141 7.74062 7.94141 9.14212C7.94141 10.5436 9.1173 11.6797 10.5678 11.6797Z" fill="#0079A4"/>
<path d="M10.5678 10.0823C11.3947 10.0823 12.0756 9.42441 12.0756 8.62553V2.0935C12.0756 1.29462 11.3947 0.636719 10.5678 0.636719C9.74098 0.636719 9.06006 1.29462 9.06006 2.0935V8.62553C9.08438 9.44791 9.74098 10.0823 10.5678 10.0823Z" fill="#FDBE21"/>
<path fill-rule="evenodd" clip-rule="evenodd" d="M48.5503 33.8945C48.5503 34.4468 48.1026 34.8945 47.5503 34.8945H37.7291C37.1768 34.8945 36.7291 34.4468 36.7291 33.8945V24.4754C36.7291 23.9231 37.1768 23.4754 37.7291 23.4754H47.5503C48.1026 23.4754 48.5503 23.9231 48.5503 24.4754V33.8945Z" fill="#097035"/>
<path fill-rule="evenodd" clip-rule="evenodd" d="M34.4912 33.8945C34.4912 34.4468 34.0435 34.8945 33.4912 34.8945H23.67C23.1177 34.8945 22.67 34.4468 22.67 33.8945V24.4754C22.67 23.9231 23.1177 23.4754 23.67 23.4754H33.4912C34.0435 23.4754 34.4912 23.9231 34.4912 24.4754V33.8945Z" fill="#097035"/>
<path fill-rule="evenodd" clip-rule="evenodd" d="M20.4077 33.8945C20.4077 34.4468 19.96 34.8945 19.4077 34.8945H9.58654C9.03425 34.8945 8.58654 34.4468 8.58654 33.8945L8.58654 24.4754C8.58654 23.9231 9.03425 23.4754 9.58654 23.4754H19.4077C19.96 23.4754 20.4077 23.9231 20.4077 24.4754V33.8945Z" fill="#097035"/>
<path fill-rule="evenodd" clip-rule="evenodd" d="M48.5503 46.8867C48.5503 47.439 48.1026 47.8867 47.5503 47.8867H37.7291C37.1768 47.8867 36.7291 47.439 36.7291 46.8867V37.4676C36.7291 36.9153 37.1768 36.4676 37.7291 36.4676H47.5503C48.1026 36.4676 48.5503 36.9153 48.5503 37.4676V46.8867Z" fill="#097035"/>
<path fill-rule="evenodd" clip-rule="evenodd" d="M34.4912 46.8867C34.4912 47.439 34.0435 47.8867 33.4912 47.8867H23.67C23.1177 47.8867 22.67 47.439 22.67 46.8867V37.4676C22.67 36.9153 23.1177 36.4676 23.67 36.4676H33.4912C34.0435 36.4676 34.4912 36.9153 34.4912 37.4676V46.8867Z" fill="#097035"/>
<g clip-path="url(#clip1_1658_36238)">
<g clip-path="url(#clip2_1658_36238)">
<path d="M8.13601 46.7266C8.13601 47.2788 8.58372 47.7266 9.13601 47.7266H19.8633C20.4156 47.7266 20.8633 47.2788 20.8633 46.7266V37.272C20.8633 36.7197 20.4156 36.272 19.8633 36.272H9.13601C8.58372 36.272 8.13601 36.7197 8.13601 37.272L8.13601 46.7266Z" fill="#EF5350"/>
<g clip-path="url(#clip3_1658_36238)">
<path d="M18 39.499L15.5 41.999L18 44.499C18.1326 44.6316 18.2071 44.8115 18.2071 44.999C18.2071 45.1866 18.1326 45.3664 18 45.499C17.8674 45.6316 17.6876 45.7061 17.5 45.7061C17.3125 45.7061 17.1326 45.6316 17 45.499L14.5 42.999L12 45.499C11.8674 45.6316 11.6875 45.7061 11.5 45.7061C11.3125 45.7061 11.1326 45.6316 11 45.499C10.8674 45.3664 10.7929 45.1866 10.7929 44.999C10.7929 44.8115 10.8674 44.6316 11 44.499L13.5 41.999L11 39.499C10.8674 39.3664 10.7929 39.1866 10.7929 38.999C10.7929 38.8115 10.8674 38.6316 11 38.499C11.1326 38.3664 11.3125 38.2919 11.5 38.2919C11.6875 38.2919 11.8674 38.3664 12 38.499L14.5 40.999L17 38.499C17.1326 38.3664 17.3125 38.2919 17.5 38.2919C17.6876 38.2919 17.8674 38.3664 18 38.499C18.1326 38.6316 18.2071 38.8115 18.2071 38.999C18.2071 39.1866 18.1326 39.3664 18 39.499Z" fill="white"/>
</g>
</g>
</g>
<path fill-rule="evenodd" clip-rule="evenodd" d="M48.5503 59.2455C48.5503 59.815 48.5503 60.0997 48.4377 60.3164C48.3428 60.4991 48.1939 60.648 48.0113 60.7429C47.7945 60.8555 47.5098 60.8555 46.9403 60.8555H38.3391C37.7696 60.8555 37.4849 60.8555 37.2681 60.7429C37.0855 60.648 36.9366 60.4991 36.8417 60.3164C36.7291 60.0997 36.7291 59.815 36.7291 59.2455V51.0463C36.7291 50.4768 36.7291 50.1921 36.8417 49.9754C36.9366 49.7927 37.0855 49.6438 37.2681 49.5489C37.4849 49.4363 37.7696 49.4363 38.3391 49.4363H46.9403C47.5098 49.4363 47.7945 49.4363 48.0113 49.5489C48.1939 49.6438 48.3428 49.7927 48.4377 49.9754C48.5503 50.1921 48.5503 50.4768 48.5503 51.0463V59.2455Z" fill="#097035"/>
<path fill-rule="evenodd" clip-rule="evenodd" d="M34.4912 59.2455C34.4912 59.815 34.4912 60.0997 34.3786 60.3164C34.2837 60.4991 34.1348 60.648 33.9522 60.7429C33.7354 60.8555 33.4507 60.8555 32.8812 60.8555H24.28C23.7105 60.8555 23.4258 60.8555 23.2091 60.7429C23.0264 60.648 22.8775 60.4991 22.7826 60.3164C22.67 60.0997 22.67 59.815 22.67 59.2455V51.0463C22.67 50.4768 22.67 50.1921 22.7826 49.9754C22.8775 49.7927 23.0264 49.6438 23.2091 49.5489C23.4258 49.4363 23.7105 49.4363 24.28 49.4363H32.8812C33.4507 49.4363 33.7354 49.4363 33.9522 49.5489C34.1348 49.6438 34.2837 49.7927 34.3786 49.9754C34.4912 50.1921 34.4912 50.4768 34.4912 51.0463V59.2455Z" fill="#097035"/>
<path fill-rule="evenodd" clip-rule="evenodd" d="M20.4077 59.2455C20.4077 59.815 20.4077 60.0997 20.2951 60.3164C20.2003 60.4991 20.0513 60.648 19.8687 60.7429C19.652 60.8555 19.3672 60.8555 18.7977 60.8555H10.1965C9.62704 60.8555 9.3423 60.8555 9.12556 60.7429C8.94292 60.648 8.794 60.4991 8.69912 60.3164C8.58654 60.0997 8.58654 59.815 8.58654 59.2455L8.58654 51.0463C8.58654 50.4768 8.58654 50.1921 8.69912 49.9754C8.794 49.7927 8.94292 49.6438 9.12556 49.5489C9.3423 49.4363 9.62705 49.4363 10.1965 49.4363H18.7977C19.3672 49.4363 19.652 49.4363 19.8687 49.5489C20.0513 49.6438 20.2003 49.7927 20.2951 49.9754C20.4077 50.1921 20.4077 50.4768 20.4077 51.0463V59.2455Z" fill="#097035"/>
</g>
<defs>
<clipPath id="clip0_1658_36238">
<rect width="56" height="68.7273" fill="white" transform="translate(0.5 0.636719)"/>
</clipPath>
<clipPath id="clip1_1658_36238">
<rect width="12.7273" height="11.4545" fill="white" transform="translate(8.13623 36.2725)"/>
</clipPath>
<clipPath id="clip2_1658_36238">
<rect width="12.7273" height="11.4545" fill="white" transform="translate(8.13623 36.2725)"/>
</clipPath>
<clipPath id="clip3_1658_36238">
<rect width="7.63636" height="8.90909" fill="white" transform="translate(10.6816 37.5449)"/>
</clipPath>
</defs>
</svg>
