<svg width="167" height="100" viewBox="0 0 167 100" fill="none" xmlns="http://www.w3.org/2000/svg">
<path fill-rule="evenodd" clip-rule="evenodd" d="M83.4996 78.5746H83.5004C86.7673 79.4088 89.1077 81.1172 90.6281 83.5992L83.5004 100H83.4996L76.3719 83.5992C77.8923 81.1172 80.2327 79.4088 83.4996 78.5746ZM45.4354 78.5746H45.4362C48.7032 79.4088 51.0435 81.1172 52.5639 83.5992L45.4362 100H45.4354L38.3077 83.5992C39.8273 81.1172 42.1685 79.4088 45.4354 78.5746ZM7.37121 78.5746C10.639 79.4088 12.9793 81.1172 14.4989 83.5992L7.37121 100L0.242676 83.5992C1.76311 81.1172 4.10347 79.4088 7.37121 78.5746ZM121.565 78.5746C118.297 79.4088 115.957 81.1172 114.437 83.5992L121.565 100L128.692 83.5992C127.173 81.1172 124.832 79.4088 121.565 78.5746ZM159.63 78.5746H159.629C156.362 79.4088 154.022 81.1172 152.501 83.5992L159.629 100H159.63L166.757 83.5992C165.237 81.1172 162.897 79.4088 159.63 78.5746ZM52.7956 28.0659C61.7574 22.4873 71.1714 19.0054 81.0813 17.8297L83.5004 0L85.9188 17.8297C95.8295 19.0054 105.243 22.4873 114.205 28.0659L83.5004 59.4609L52.7956 28.0659ZM26.4029 54.2532C33.494 55.8254 39.4882 59.1576 43.9397 64.9616L26.4029 100L8.86697 64.9616C13.3184 59.1576 19.3118 55.8254 26.4029 54.2532ZM140.597 54.2532C133.506 55.8254 127.513 59.1576 123.06 64.9616L140.597 100L158.133 64.9616C153.682 59.1576 147.688 55.8254 140.597 54.2532ZM102.533 54.2532C95.441 55.8254 89.4476 59.1576 84.9962 64.9616L102.533 100L120.069 64.9616C115.617 59.1576 109.623 55.8254 102.533 54.2532ZM64.4679 54.2532C71.559 55.8254 77.5524 59.1576 82.0039 64.9616L64.4679 100L46.932 64.9616C51.3834 59.1576 57.3768 55.8254 64.4679 54.2532ZM121.565 34.0163C113.863 35.1021 108.514 38.2568 104.771 42.8277L121.565 61.135L138.359 42.8277C134.617 38.2568 129.267 35.1021 121.565 34.0163ZM45.4354 34.0163C53.1379 35.1021 58.4865 38.2568 62.2302 42.8277L45.4354 61.135L28.6414 42.8277C32.3843 38.2568 37.7337 35.1021 45.4354 34.0163Z" fill="#EEEEEE"/>
</svg>
