<svg width="22" height="22" viewBox="0 0 22 22" fill="none" xmlns="http://www.w3.org/2000/svg">
<g clip-path="url(#clip0_1254_18647)">
<path d="M11 0C8.82441 0 6.69767 0.645139 4.88873 1.85383C3.07979 3.06253 1.66989 4.78049 0.83733 6.79048C0.00476612 8.80047 -0.21307 11.0122 0.211367 13.146C0.635804 15.2798 1.68345 17.2398 3.22183 18.7782C4.76021 20.3165 6.72022 21.3642 8.85401 21.7886C10.9878 22.2131 13.1995 21.9952 15.2095 21.1627C17.2195 20.3301 18.9375 18.9202 20.1462 17.1113C21.3549 15.3023 22 13.1756 22 11C22 9.55546 21.7155 8.12506 21.1627 6.79048C20.6099 5.4559 19.7996 4.24327 18.7782 3.22182C17.7567 2.20038 16.5441 1.39013 15.2095 0.837325C13.8749 0.284523 12.4445 0 11 0ZM11 19.8C9.25953 19.8 7.55814 19.2839 6.11098 18.3169C4.66383 17.35 3.53592 15.9756 2.86986 14.3676C2.20381 12.7596 2.02954 10.9902 2.36909 9.2832C2.70864 7.57617 3.54676 6.00816 4.77746 4.77746C6.00817 3.54676 7.57618 2.70864 9.28321 2.36909C10.9902 2.02954 12.7596 2.20381 14.3676 2.86986C15.9756 3.53591 17.35 4.66383 18.3169 6.11098C19.2839 7.55813 19.8 9.25952 19.8 11C19.8 13.3339 18.8729 15.5722 17.2225 17.2225C15.5722 18.8729 13.3339 19.8 11 19.8Z" fill="#16A75C"/>
<path d="M11 7.7C11.6075 7.7 12.1 7.20751 12.1 6.6C12.1 5.99249 11.6075 5.5 11 5.5C10.3925 5.5 9.90002 5.99249 9.90002 6.6C9.90002 7.20751 10.3925 7.7 11 7.7Z" fill="#16A75C"/>
<path d="M11 8.79999C10.7083 8.79999 10.4285 8.91588 10.2222 9.12217C10.0159 9.32846 9.90002 9.60825 9.90002 9.89999V15.4C9.90002 15.6917 10.0159 15.9715 10.2222 16.1778C10.4285 16.3841 10.7083 16.5 11 16.5C11.2918 16.5 11.5716 16.3841 11.7778 16.1778C11.9841 15.9715 12.1 15.6917 12.1 15.4V9.89999C12.1 9.60825 11.9841 9.32846 11.7778 9.12217C11.5716 8.91588 11.2918 8.79999 11 8.79999Z" fill="#16A75C"/>
</g>
<defs>
<clipPath id="clip0_1254_18647">
<rect width="22" height="22" fill="white"/>
</clipPath>
</defs>
</svg>
