<svg width="22" height="22" viewBox="0 0 22 22" fill="none" xmlns="http://www.w3.org/2000/svg">
<path d="M10.9998 12.6667C12.8382 12.6667 14.3332 11.1717 14.3332 9.33333C14.3332 7.495 12.8382 6 10.9998 6C9.1615 6 7.6665 7.495 7.6665 9.33333C7.6665 11.1717 9.1615 12.6667 10.9998 12.6667ZM10.9998 7.66667C11.919 7.66667 12.6665 8.41417 12.6665 9.33333C12.6665 10.2525 11.919 11 10.9998 11C10.0807 11 9.33317 10.2525 9.33317 9.33333C9.33317 8.41417 10.0807 7.66667 10.9998 7.66667Z" fill="#16A75C"/>
<path d="M10.5169 19.1783C10.6579 19.279 10.8269 19.3332 11.0002 19.3332C11.1735 19.3332 11.3425 19.279 11.4836 19.1783C11.7369 18.9992 17.6911 14.7 17.6669 9.33332C17.6669 5.65749 14.6761 2.66666 11.0002 2.66666C7.3244 2.66666 4.33357 5.65749 4.33357 9.32916C4.3094 14.7 10.2636 18.9992 10.5169 19.1783ZM11.0002 4.33332C13.7577 4.33332 16.0002 6.57582 16.0002 9.33749C16.0177 13.0358 12.3436 16.3567 11.0002 17.4458C9.65774 16.3558 5.98274 13.0342 6.00024 9.33332C6.00024 6.57582 8.24274 4.33332 11.0002 4.33332Z" fill="#16A75C"/>
</svg>
