<svg width="31" height="34" viewBox="0 0 31 34" fill="none" xmlns="http://www.w3.org/2000/svg">
<path d="M11.9 26.4501L15.0833 23.2668L18.2667 26.4501C18.75 26.9334 19.55 26.9334 20.0333 26.4501C20.5167 25.9667 20.5167 25.1667 20.0333 24.6834L16.85 21.5001L20.0333 18.3167C20.5167 17.8334 20.5167 17.0334 20.0333 16.5501C19.7981 16.3176 19.4807 16.1872 19.15 16.1872C18.8193 16.1872 18.5019 16.3176 18.2667 16.5501L15.0833 19.7334L11.9 16.5501C11.6648 16.3176 11.3474 16.1872 11.0167 16.1872C10.686 16.1872 10.3686 16.3176 10.1333 16.5501C9.65 17.0334 9.65 17.8334 10.1333 18.3167L13.3167 21.5001L10.1333 24.6834C9.65 25.1667 9.65 25.9667 10.1333 26.4501C10.6167 26.9334 11.4167 26.9334 11.9 26.4501ZM27.1667 4.00008H25.5V2.33341C25.5 1.41675 24.75 0.666748 23.8333 0.666748C22.9167 0.666748 22.1667 1.41675 22.1667 2.33341V4.00008H8.83333V2.33341C8.83333 1.41675 8.08333 0.666748 7.16667 0.666748C6.25 0.666748 5.5 1.41675 5.5 2.33341V4.00008H3.83333C1.98333 4.00008 0.516667 5.50008 0.516667 7.33342L0.5 30.6667C0.5 31.5508 0.851189 32.3987 1.47631 33.0238C2.10143 33.6489 2.94928 34.0001 3.83333 34.0001H27.1667C29 34.0001 30.5 32.5001 30.5 30.6667V7.33342C30.5 5.50008 29 4.00008 27.1667 4.00008ZM25.5 30.6667H5.5C4.58333 30.6667 3.83333 29.9167 3.83333 29.0001V12.3334H27.1667V29.0001C27.1667 29.9167 26.4167 30.6667 25.5 30.6667Z" fill="#EEEEEE"/>
</svg>
