<svg width="22" height="22" viewBox="0 0 22 22" fill="none" xmlns="http://www.w3.org/2000/svg">
<path d="M15.0623 11.7803C16.1402 10.9323 16.9269 9.76943 17.313 8.45351C17.6992 7.13759 17.6656 5.73403 17.2169 4.4381C16.7682 3.14217 15.9267 2.01831 14.8096 1.22288C13.6924 0.42745 12.3551 0 10.9837 0C9.61229 0 8.27499 0.42745 7.15783 1.22288C6.04067 2.01831 5.19921 3.14217 4.75053 4.4381C4.30184 5.73403 4.26824 7.13759 4.65439 8.45351C5.04054 9.76943 5.82724 10.9323 6.90505 11.7803C5.0582 12.5202 3.44676 13.7474 2.24252 15.3311C1.03828 16.9148 0.286388 18.7956 0.066995 20.7731C0.0511142 20.9174 0.063825 21.0635 0.104401 21.203C0.144978 21.3424 0.212625 21.4725 0.303481 21.5859C0.486974 21.8147 0.753861 21.9613 1.04543 21.9934C1.337 22.0254 1.62937 21.9404 1.85822 21.7569C2.08707 21.5734 2.23365 21.3065 2.26573 21.0149C2.50713 18.8659 3.53185 16.8811 5.14411 15.4398C6.75636 13.9985 8.84312 13.2018 11.0057 13.2018C13.1683 13.2018 15.255 13.9985 16.8673 15.4398C18.4795 16.8811 19.5042 18.8659 19.7456 21.0149C19.7755 21.2851 19.9044 21.5345 20.1075 21.7152C20.3105 21.8959 20.5732 21.995 20.845 21.9934H20.9659C21.2541 21.9602 21.5175 21.8145 21.6987 21.588C21.88 21.3615 21.9643 21.0725 21.9334 20.7841C21.713 18.801 20.957 16.9154 19.7466 15.3292C18.5362 13.7431 16.9169 12.5163 15.0623 11.7803ZM10.9837 10.9997C10.114 10.9997 9.26376 10.7418 8.5406 10.2586C7.81744 9.7754 7.25381 9.08861 6.92097 8.28508C6.58814 7.48154 6.50105 6.59736 6.67073 5.74434C6.84041 4.89131 7.25923 4.10776 7.87422 3.49276C8.48922 2.87776 9.27277 2.45895 10.1258 2.28927C10.9788 2.11959 11.863 2.20668 12.6665 2.53951C13.4701 2.87234 14.1569 3.43598 14.6401 4.15914C15.1233 4.8823 15.3812 5.7325 15.3812 6.60224C15.3812 7.76852 14.9179 8.88703 14.0932 9.71172C13.2685 10.5364 12.15 10.9997 10.9837 10.9997Z" fill="#16A75C"/>
</svg>
