<svg width="23" height="22" viewBox="0 0 23 22" fill="none" xmlns="http://www.w3.org/2000/svg">
<path d="M11.6621 11C10.871 11 10.0976 10.7654 9.43983 10.3259C8.78203 9.88636 8.26934 9.26164 7.96659 8.53074C7.66384 7.79983 7.58463 6.99557 7.73897 6.21964C7.89331 5.44372 8.27427 4.73099 8.83368 4.17158C9.39309 3.61216 10.1058 3.2312 10.8818 3.07686C11.6577 2.92252 12.4619 3.00173 13.1928 3.30448C13.9238 3.60723 14.5485 4.11992 14.988 4.77772C15.4275 5.43552 15.6621 6.20888 15.6621 7C15.6609 8.06049 15.239 9.07718 14.4892 9.82706C13.7393 10.5769 12.7226 10.9988 11.6621 11ZM11.6621 4.6C11.1874 4.6 10.7234 4.74076 10.3287 5.00448C9.93406 5.26819 9.62645 5.64302 9.4448 6.08156C9.26315 6.52011 9.21562 7.00267 9.30823 7.46822C9.40083 7.93377 9.62941 8.36141 9.96506 8.69706C10.3007 9.03271 10.7283 9.26128 11.1939 9.35389C11.6594 9.44649 12.142 9.39897 12.5806 9.21731C13.0191 9.03566 13.3939 8.72805 13.6576 8.33337C13.9214 7.93869 14.0621 7.47468 14.0621 7C14.0614 6.3637 13.8083 5.75365 13.3584 5.30371C12.9085 4.85378 12.2984 4.6007 11.6621 4.6Z" fill="#16A75C"/>
<path d="M18.3762 19.0001H4.9567C4.72817 18.9996 4.50386 18.9385 4.30661 18.8231C4.10935 18.7077 3.94621 18.5421 3.83378 18.3431C3.72136 18.1442 3.66368 17.919 3.66661 17.6905C3.66954 17.462 3.73298 17.2383 3.85047 17.0423C4.65693 15.6882 5.80134 14.5669 7.17155 13.7882C8.54175 13.0095 10.0908 12.6001 11.6668 12.6001C13.2428 12.6001 14.7918 13.0096 16.162 13.7884C17.5322 14.5672 18.6765 15.6886 19.4829 17.0427C19.6003 17.2387 19.6636 17.4624 19.6664 17.6908C19.6693 17.9193 19.6115 18.1445 19.4991 18.3434C19.3866 18.5423 19.2235 18.7078 19.0262 18.8232C18.829 18.9385 18.6047 18.9996 18.3762 19.0001ZM5.52233 17.4001H17.8106C17.1193 16.4119 16.1998 15.6051 15.1302 15.048C14.0606 14.491 12.8724 14.2001 11.6665 14.2001C10.4605 14.2001 9.27231 14.491 8.20271 15.048C7.13311 15.6051 6.21365 16.4119 5.52233 17.4001Z" fill="#16A75C"/>
</svg>
