<svg width="22" height="22" viewBox="0 0 22 22" fill="none" xmlns="http://www.w3.org/2000/svg">
<path d="M16 14.4C15.3667 14.4 14.8 14.65 14.3667 15.0416L8.425 11.5833C8.46667 11.3916 8.5 11.2 8.5 11C8.5 10.8 8.46667 10.6083 8.425 10.4166L14.3 6.99163C14.75 7.40829 15.3417 7.66663 16 7.66663C17.3833 7.66663 18.5 6.54996 18.5 5.16663C18.5 3.78329 17.3833 2.66663 16 2.66663C14.6167 2.66663 13.5 3.78329 13.5 5.16663C13.5 5.36663 13.5333 5.55829 13.575 5.74996L7.7 9.17496C7.25 8.75829 6.65833 8.49996 6 8.49996C4.61667 8.49996 3.5 9.61663 3.5 11C3.5 12.3833 4.61667 13.5 6 13.5C6.65833 13.5 7.25 13.2416 7.7 12.825L13.6333 16.2916C13.5917 16.4666 13.5667 16.65 13.5667 16.8333C13.5667 18.175 14.6583 19.2666 16 19.2666C17.3417 19.2666 18.4333 18.175 18.4333 16.8333C18.4333 15.4916 17.3417 14.4 16 14.4Z" fill="#16A75C"/>
</svg>
