<svg width="23" height="22" viewBox="0 0 23 22" fill="none" xmlns="http://www.w3.org/2000/svg">
<g clip-path="url(#clip0_1254_18660)">
<path d="M18.1116 14.2218V17.7782H14.5552C14.29 17.7782 14.0356 17.8835 13.8481 18.0711L11.3334 20.5858L8.81865 18.0711C8.63111 17.8835 8.37676 17.7782 8.11154 17.7782H4.5552V14.2218C4.5552 13.9566 4.44984 13.7023 4.26231 13.5147L1.74759 11L4.26231 8.48528C4.44984 8.29775 4.5552 8.04339 4.5552 7.77818V4.22182H8.11156C8.37677 4.22182 8.63113 4.11646 8.81866 3.92892L11.3334 1.41421L13.8481 3.92892C14.0356 4.11646 14.29 4.22182 14.5552 4.22182H18.1116V7.77818C18.1116 8.04339 18.2169 8.29775 18.4044 8.48528L20.9192 11L18.4044 13.5147C18.2169 13.7023 18.1116 13.9566 18.1116 14.2218Z" stroke="#16A75C" stroke-width="2" stroke-linejoin="round"/>
<path d="M14.7465 12.7451V14.4132H13.0785C12.8663 14.4132 12.6628 14.4974 12.5128 14.6475L11.3333 15.827L10.1539 14.6475C10.0038 14.4974 9.80035 14.4132 9.58817 14.4132H7.92016V12.7451C7.92016 12.533 7.83587 12.3295 7.68584 12.1795L6.50637 11L7.68584 9.82052C7.83587 9.67049 7.92016 9.46701 7.92016 9.25483V7.58681H9.58818C9.80036 7.58681 10.0038 7.50252 10.1539 7.35249L11.3333 6.17303L12.5128 7.35249C12.6628 7.50252 12.8663 7.58681 13.0785 7.58681H14.7465V9.25483C14.7465 9.46701 14.8308 9.67049 14.9808 9.82052L16.1603 11L14.9808 12.1795C14.8308 12.3295 14.7465 12.533 14.7465 12.7451Z" stroke="#16A75C" stroke-width="1.6" stroke-linejoin="round"/>
</g>
<defs>
<clipPath id="clip0_1254_18660">
<rect width="22" height="22" fill="white" transform="translate(0.333374)"/>
</clipPath>
</defs>
</svg>
